<svg width="172" height="227" viewBox="0 0 172 227" fill="none" xmlns="http://www.w3.org/2000/svg">
<path d="M34.7664 126.449L34.7164 100.949L22.0664 122.199H19.7664L7.11641 101.099V126.449H2.31641V91.4485H6.41641L21.0164 116.049L35.4164 91.4485H39.5164L39.5664 126.449H34.7664Z" fill="white"/>
<path d="M71.2109 126.849C67.6776 126.849 64.4943 126.082 61.6609 124.549C58.8276 122.982 56.5943 120.832 54.9609 118.099C53.3609 115.365 52.5609 112.315 52.5609 108.949C52.5609 105.582 53.3609 102.532 54.9609 99.7985C56.5943 97.0652 58.8276 94.9319 61.6609 93.3985C64.4943 91.8319 67.6776 91.0485 71.2109 91.0485C74.7109 91.0485 77.8776 91.8319 80.7109 93.3985C83.5443 94.9319 85.7609 97.0652 87.3609 99.7985C88.9609 102.499 89.7609 105.549 89.7609 108.949C89.7609 112.349 88.9609 115.415 87.3609 118.149C85.7609 120.849 83.5443 122.982 80.7109 124.549C77.8776 126.082 74.7109 126.849 71.2109 126.849ZM71.2109 122.399C73.7776 122.399 76.0776 121.815 78.1109 120.649C80.1776 119.482 81.7943 117.882 82.9609 115.849C84.1609 113.782 84.7609 111.482 84.7609 108.949C84.7609 106.415 84.1609 104.132 82.9609 102.099C81.7943 100.032 80.1776 98.4152 78.1109 97.2485C76.0776 96.0819 73.7776 95.4985 71.2109 95.4985C68.6443 95.4985 66.3109 96.0819 64.2109 97.2485C62.1443 98.4152 60.5109 100.032 59.3109 102.099C58.1443 104.132 57.5609 106.415 57.5609 108.949C57.5609 111.482 58.1443 113.782 59.3109 115.849C60.5109 117.882 62.1443 119.482 64.2109 120.649C66.3109 121.815 68.6443 122.399 71.2109 122.399Z" fill="white"/>
<path d="M126.405 95.7985H114.405V126.449H109.505V95.7985H97.5555V91.4485H126.405V95.7985Z" fill="white"/>
<path d="M152.744 126.849C149.211 126.849 146.027 126.082 143.194 124.549C140.361 122.982 138.127 120.832 136.494 118.099C134.894 115.365 134.094 112.315 134.094 108.949C134.094 105.582 134.894 102.532 136.494 99.7985C138.127 97.0652 140.361 94.9319 143.194 93.3985C146.027 91.8319 149.211 91.0485 152.744 91.0485C156.244 91.0485 159.411 91.8319 162.244 93.3985C165.077 94.9319 167.294 97.0652 168.894 99.7985C170.494 102.499 171.294 105.549 171.294 108.949C171.294 112.349 170.494 115.415 168.894 118.149C167.294 120.849 165.077 122.982 162.244 124.549C159.411 126.082 156.244 126.849 152.744 126.849ZM152.744 122.399C155.311 122.399 157.611 121.815 159.644 120.649C161.711 119.482 163.327 117.882 164.494 115.849C165.694 113.782 166.294 111.482 166.294 108.949C166.294 106.415 165.694 104.132 164.494 102.099C163.327 100.032 161.711 98.4152 159.644 97.2485C157.611 96.0819 155.311 95.4985 152.744 95.4985C150.177 95.4985 147.844 96.0819 145.744 97.2485C143.677 98.4152 142.044 100.032 140.844 102.099C139.677 104.132 139.094 106.415 139.094 108.949C139.094 111.482 139.677 113.782 140.844 115.849C142.044 117.882 143.677 119.482 145.744 120.649C147.844 121.815 150.177 122.399 152.744 122.399Z" fill="white"/>
<path d="M8.94051 155.495L19.9205 170.855L30.9005 155.495H37.9205L23.7005 175.655L39.0605 197.495H31.9805L19.9205 180.755L7.92051 197.495H1.02051L16.3205 175.895L2.04051 155.495H8.94051Z" fill="white"/>
<path d="M68.6124 155.495H74.5524V187.895L99.3924 155.495H104.912V197.495H99.0324V165.155L74.1324 197.495H68.6124V155.495Z" fill="white"/>
<path d="M170.267 160.715H155.867V197.495H149.987V160.715H135.647V155.495H170.267V160.715Z" fill="white"/>
<g clip-path="url(#clip0)">
<path d="M58.0977 41.8358C64.6212 41.5423 70.367 45.3532 72.8725 50.9776C74.2473 50.6838 75.4121 50.5516 76.1338 50.7102L76.1706 48.9737C76.1706 48.9737 73.3799 48.637 72.7369 44.6179C72.0939 40.5984 63.2479 31.6281 56.5061 30.8907C49.7655 30.1529 43.8901 28.1037 43.8901 28.1037C43.8901 28.1037 48.1965 28.719 56.3184 29.2795C64.4403 29.8397 72.6973 41.1484 77.6807 41.3881C82.6642 41.6262 86.3715 38.2437 97.4711 28.8162C97.8778 28.472 98.271 28.3114 98.6341 28.2597L97.7244 26.3829C99.083 25.5546 99.9756 24.0474 99.8991 22.3464C99.89 22.1455 99.8482 21.9542 99.813 21.7608C99.927 21.8845 100.035 22.0144 100.114 22.1755L108.426 39.3084C110.173 38.5108 112.094 38.0192 114.131 37.9276C122.64 37.5449 129.849 44.1319 130.232 52.6424C130.615 61.1514 124.026 68.3614 115.516 68.7442C107.006 69.1269 99.7973 62.5392 99.4145 54.0286C99.1878 48.9888 101.416 44.4201 105.029 41.4413L100.724 32.5685C100.015 33.6091 96.74 38.5918 95.0492 44.423C93.1474 50.9856 91.7905 56.8285 81.8815 55.0772C79.3499 54.6288 76.6507 54.6377 74.0328 54.8949C74.1143 55.4375 74.1744 55.9889 74.1997 56.5505C74.5824 65.0595 67.9944 72.2695 59.4841 72.6523C50.9735 73.0351 43.7651 66.4473 43.3823 57.9367C42.9992 49.4251 49.5871 42.2186 58.0977 41.8358ZM103.57 53.8417C103.849 60.046 109.125 64.8682 115.329 64.5891C121.534 64.31 126.356 59.0352 126.077 52.8293C125.798 46.6237 120.522 41.8023 114.317 42.0814C112.866 42.1467 111.495 42.4945 110.243 43.0541L114.847 52.5445C115.229 53.3308 114.98 54.2393 114.292 54.5739L113.2 55.1041C112.511 55.4387 111.643 55.0713 111.261 54.2846L106.919 45.3355C104.73 47.4996 103.421 50.5335 103.57 53.8417ZM59.297 68.4974C65.5026 68.2183 70.3232 62.9433 70.0441 56.7377C70.0252 56.3185 69.9794 55.9057 69.9169 55.4991C64.0887 56.6096 59.485 58.5138 59.485 58.5138C59.485 58.5138 56.9966 59.7818 55.8643 57.7511C54.732 55.7202 57.9637 55.5748 60.1366 55.0148C61.3288 54.7063 65.1162 53.239 68.793 52.0884C66.8351 48.3056 62.813 45.7874 58.2846 45.9911C52.0787 46.2703 47.2581 51.546 47.5372 57.7503C47.8163 63.9557 53.0911 68.7766 59.297 68.4974Z" fill="white"/>
<path d="M98.2606 21.336C98.4014 21.6686 98.4955 22.0269 98.5127 22.409C98.5637 23.5419 97.9971 24.5513 97.1189 25.1378C96.6618 25.4429 96.1249 25.6393 95.5366 25.6657C93.8147 25.7432 92.3576 24.4113 92.2802 22.6894C92.2027 20.9675 93.5344 19.5104 95.2563 19.4329C96.5953 19.3724 97.7655 20.1705 98.2606 21.336Z" fill="white"/>
</g>
<rect x="145.085" y="45.0301" width="26.2092" height="3.74292" fill="white"/>
<rect x="1.02051" y="45.0301" width="26.7127" height="3.74292" fill="white"/>
<rect x="1.02051" y="223.03" width="170.274" height="3.74292" fill="white"/>
<defs>
<clipPath id="clip0">
<rect width="87" height="87" fill="white" transform="matrix(-0.99899 0.0449351 0.0449351 0.99899 127.874 0.227051)"/>
</clipPath>
</defs>
</svg>
